<svg xmlns="http://www.w3.org/2000/svg" viewBox="0 0 144 19">
    <path d="M8.232 18.406c2.128 0 3.772-.584 4.932-1.752 1.16-1.168 1.772-2.584 1.836-4.248.016-.384-.144-.62-.48-.708-.336-.088-.616.004-.84.276-.24.336-.452.616-.636.84-.184.224-.448.484-.792.78-.344.296-.736.524-1.176.684-.44.16-.924.24-1.452.24-1.424 0-2.68-.724-3.768-2.172-1.088-1.448-1.632-3.3-1.632-5.556 0-1.28.284-2.296.852-3.048.568-.752 1.252-1.128 2.052-1.128.528 0 .996.164 1.404.492.408.328.756.728 1.044 1.2.288.472.572.94.852 1.404.28.464.636.86 1.068 1.188.432.328.92.492 1.464.492.608 0 1.092-.176 1.452-.528.36-.352.54-.808.54-1.368 0-1.248-.688-2.324-2.064-3.228C11.512 1.362 9.88.91 7.992.91c-2.384 0-4.312.804-5.784 2.412C.736 4.93 0 6.966 0 9.43c0 2.4.788 4.496 2.364 6.288 1.576 1.792 3.532 2.688 5.868 2.688zm14.472 0c1.776 0 3.288-.564 4.536-1.692 1.248-1.128 1.872-2.556 1.872-4.284 0-1.744-.64-3.184-1.92-4.32-1.28-1.136-2.832-1.704-4.656-1.704-1.76 0-3.28.564-4.56 1.692-1.28 1.128-1.92 2.556-1.92 4.284 0 1.728.644 3.164 1.932 4.308 1.288 1.144 2.86 1.716 4.716 1.716zm.504-1.176c-.448 0-.868-.252-1.26-.756s-.7-1.12-.924-1.848c-.224-.728-.4-1.452-.528-2.172-.128-.72-.192-1.344-.192-1.872 0-1.008.12-1.76.36-2.256.24-.496.64-.744 1.2-.744.576 0 1.1.44 1.572 1.32.472.88.808 1.816 1.008 2.808.2.992.3 1.848.3 2.568 0 1.968-.512 2.952-1.536 2.952zm12.672.936c.384 0 .576-.152.576-.456v-.096c0-.192-.176-.484-.528-.876-.352-.392-.528-.788-.528-1.188V.622c0-.24-.1-.42-.3-.54-.2-.12-.468-.108-.804.036l-3.624 1.776c-.352.192-.528.376-.528.552v.096c0 .16.156.436.468.828.312.392.468.796.468 1.212V15.55c0 .4-.156.796-.468 1.188-.312.392-.468.684-.468.876v.096c0 .304.184.456.552.456h5.184zm8.184.24c1.776 0 3.288-.564 4.536-1.692 1.248-1.128 1.872-2.556 1.872-4.284 0-1.744-.64-3.184-1.92-4.32-1.28-1.136-2.832-1.704-4.656-1.704-1.76 0-3.28.564-4.56 1.692-1.28 1.128-1.92 2.556-1.92 4.284 0 1.728.644 3.164 1.932 4.308 1.288 1.144 2.86 1.716 4.716 1.716zm.504-1.176c-.448 0-.868-.252-1.26-.756s-.7-1.12-.924-1.848c-.224-.728-.4-1.452-.528-2.172-.128-.72-.192-1.344-.192-1.872 0-1.008.12-1.76.36-2.256.24-.496.64-.744 1.2-.744.576 0 1.1.44 1.572 1.32.472.88.808 1.816 1.008 2.808.2.992.3 1.848.3 2.568 0 1.968-.512 2.952-1.536 2.952zm12.864.96c.384 0 .576-.152.576-.456v-.096c0-.192-.176-.488-.528-.888-.352-.4-.528-.8-.528-1.2v-5.232c0-.72.132-1.288.396-1.704.264-.416.652-.624 1.164-.624.544 0 .94.248 1.188.744s.404 1.336.468 2.52l.24 4.296c.032.4-.104.8-.408 1.2-.304.4-.456.696-.456.888v.096c0 .304.192.456.576.456h4.8c.384 0 .576-.152.576-.456v-.096c0-.208-.136-.508-.408-.9-.272-.392-.424-.788-.456-1.188l-.312-4.152c-.128-1.76-.624-3.032-1.488-3.816-.864-.784-1.896-1.176-3.096-1.176-1.616 0-2.76.6-3.432 1.8V7.078c0-.272-.076-.468-.228-.588-.152-.12-.38-.116-.684.012l-3.36 1.656c-.384.192-.576.392-.576.6v.072c0 .192.108.372.324.54.216.168.428.368.636.6.208.232.312.516.312.852v4.728c0 .4-.176.8-.528 1.2-.352.4-.528.696-.528.888v.096c0 .304.192.456.576.456h5.184zm16.488-.024c2.672 0 4.68-.432 6.024-1.296 1.344-.864 2.016-2.032 2.016-3.504 0-1.152-.4-2.12-1.2-2.904-.8-.784-1.888-1.272-3.264-1.464.848-.224 1.524-.648 2.028-1.272s.756-1.384.756-2.28c0-1.28-.532-2.32-1.596-3.12-1.064-.8-2.628-1.2-4.692-1.2h-6.648c-.384 0-.576.152-.576.456v.096c0 .192.16.484.48.876.32.392.48.788.48 1.188V15.55c0 .4-.16.796-.48 1.188-.32.392-.48.684-.48.876v.096c0 .304.192.456.576.456h6.576zm.624-9.84h-1.2c-.384 0-.696-.112-.936-.336-.24-.224-.36-.528-.36-.912V4.054c0-.832.376-1.248 1.128-1.248h.672c.832 0 1.492.288 1.98.864.488.576.732 1.376.732 2.4 0 .688-.184 1.236-.552 1.644-.368.408-.856.612-1.464.612zm.456 8.16h-1.152c-.544 0-.98-.192-1.308-.576-.328-.384-.492-.872-.492-1.464v-4.44h1.008c1.344 0 2.404.416 3.18 1.248.776.832 1.164 1.744 1.164 2.736 0 .752-.212 1.356-.636 1.812-.424.456-1.012.684-1.764.684zm13.92 1.68c.384 0 .576-.152.576-.456v-.096c0-.192-.212-.484-.636-.876-.424-.392-.636-.788-.636-1.188v-4.464c0-1.536.296-2.304.888-2.304.256 0 .448.116.576.348.128.232.212.492.252.78.04.288.188.548.444.78.256.232.632.348 1.128.348 1.232 0 1.848-.752 1.848-2.256 0-.688-.204-1.256-.612-1.704-.408-.448-.956-.672-1.644-.672-1.664 0-2.768.792-3.312 2.376V7.03c0-.272-.064-.456-.192-.552-.128-.096-.352-.088-.672.024l-3.384 1.584c-.368.192-.552.424-.552.696v.072c0 .192.096.368.288.528.192.16.384.352.576.576.192.224.288.496.288.816v4.776c0 .4-.16.796-.48 1.188-.32.392-.48.684-.48.876v.096c0 .304.192.456.576.456h5.16zm11.592.24c1.776 0 3.288-.564 4.536-1.692 1.248-1.128 1.872-2.556 1.872-4.284 0-1.744-.64-3.184-1.92-4.32-1.28-1.136-2.832-1.704-4.656-1.704-1.76 0-3.28.564-4.56 1.692-1.28 1.128-1.92 2.556-1.92 4.284 0 1.728.644 3.164 1.932 4.308 1.288 1.144 2.86 1.716 4.716 1.716zm.504-1.176c-.448 0-.868-.252-1.26-.756s-.7-1.12-.924-1.848c-.224-.728-.4-1.452-.528-2.172-.128-.72-.192-1.344-.192-1.872 0-1.008.12-1.76.36-2.256.24-.496.64-.744 1.2-.744.576 0 1.1.44 1.572 1.32.472.88.808 1.816 1.008 2.808.2.992.3 1.848.3 2.568 0 1.968-.512 2.952-1.536 2.952zm13.584 1.176c1.776 0 3.288-.564 4.536-1.692 1.248-1.128 1.872-2.556 1.872-4.284 0-1.744-.64-3.184-1.92-4.32-1.28-1.136-2.832-1.704-4.656-1.704-1.76 0-3.28.564-4.56 1.692-1.28 1.128-1.92 2.556-1.92 4.284 0 1.728.644 3.164 1.932 4.308 1.288 1.144 2.86 1.716 4.716 1.716zm.504-1.176c-.448 0-.868-.252-1.26-.756s-.7-1.12-.924-1.848c-.224-.728-.4-1.452-.528-2.172-.128-.72-.192-1.344-.192-1.872 0-1.008.12-1.76.36-2.256.24-.496.64-.744 1.2-.744.576 0 1.1.44 1.572 1.32.472.88.808 1.816 1.008 2.808.2.992.3 1.848.3 2.568 0 1.968-.512 2.952-1.536 2.952zm12.84.96c.384 0 .576-.152.576-.456v-.096c0-.192-.176-.488-.528-.888-.352-.4-.528-.8-.528-1.2v-5.28c0-.688.136-1.24.408-1.656.272-.416.672-.624 1.2-.624 1.088 0 1.632 1 1.632 3v4.56c0 .4-.14.8-.42 1.2-.28.4-.42.696-.42.888v.096c0 .304.192.456.576.456h4.776c.384 0 .576-.152.576-.456v-.096c0-.192-.144-.488-.432-.888-.288-.4-.432-.8-.432-1.2v-4.272c0-.336-.024-.672-.072-1.008 0-.688.128-1.24.384-1.656.256-.416.624-.624 1.104-.624.528 0 .92.252 1.176.756.256.504.416 1.356.48 2.556l.24 4.248c.032.416-.104.824-.408 1.224s-.456.688-.456.864v.096c0 .304.192.456.576.456h4.8c.384 0 .576-.152.576-.456v-.096c0-.192-.136-.488-.408-.888-.272-.4-.424-.8-.456-1.2l-.312-4.104c-.128-1.792-.604-3.08-1.428-3.864-.824-.784-1.82-1.176-2.988-1.176-.8 0-1.512.172-2.136.516-.624.344-1.096.828-1.416 1.452-.848-1.312-2.16-1.968-3.936-1.968-1.392 0-2.456.512-3.192 1.536v-.864c0-.256-.08-.448-.24-.576-.16-.128-.384-.128-.672 0l-3.6 1.656c-.384.192-.576.392-.576.6v.072c0 .192.104.376.312.552.208.176.42.38.636.612.216.232.324.508.324.828v4.728c0 .4-.176.8-.528 1.2-.352.4-.528.696-.528.888v.096c0 .304.192.456.576.456h5.184z"/>
</svg>
